<svg width="69" height="57" viewBox="0 0 69 57" fill="none" xmlns="http://www.w3.org/2000/svg">
<path d="M28.5 0C44.2401 0 57 12.7599 57 28.5C57 44.2401 44.2401 57 28.5 57C12.7599 57 0 44.2401 0 28.5C0 12.7599 12.7599 0 28.5 0ZM62 43C65.866 43 69 46.134 69 50C69 53.866 65.866 57 62 57C58.134 57 55 53.866 55 50C55 46.134 58.134 43 62 43ZM28.5 43C30.4041 43 32.2897 42.6251 34.0488 41.8965C35.808 41.1678 37.4065 40.0994 38.7529 38.7529C40.0994 37.4065 41.1678 35.808 41.8965 34.0488C42.6251 32.2897 43 30.4041 43 28.5C43 26.5959 42.6251 24.7103 41.8965 22.9512C41.1678 21.192 40.0994 19.5935 38.7529 18.2471C37.4065 16.9006 35.808 15.8322 34.0488 15.1035C32.2897 14.3749 30.4041 14 28.5 14V43Z" fill="black"/>
</svg>
